<?xml version="1.0" encoding="UTF-8"?>
<svg xmlns="http://www.w3.org/2000/svg" xmlns:xlink="http://www.w3.org/1999/xlink" width="193pt" height="193pt" viewBox="0 0 193 193" version="1.1">
<g id="surface1">
<path style=" stroke:none;fill-rule:evenodd;fill:rgb(100%,100%,100%);fill-opacity:1;" d="M 0 0.242188 L 192.757813 0.242188 L 192.757813 193 L 0 193 L 0 0.242188 "/>
<path style=" stroke:none;fill-rule:evenodd;fill:rgb(13.699341%,12.199402%,12.5%);fill-opacity:1;" d="M 81.222656 56.421875 L 75.570313 83.710938 L 71.671875 107.292969 L 74.695313 112.847656 L 54.324219 112.75 L 54.8125 110.898438 L 56.273438 110.605469 L 60.074219 109.242188 C 61.148438 108.851563 62.023438 103.785156 63.582031 95.5 L 70.894531 55.445313 L 69.234375 51.15625 C 83.757813 51.15625 91.652344 51.058594 99.449219 51.058594 C 109 51.058594 115.820313 54.375 116.40625 62.363281 C 116.796875 67.726563 113.578125 72.304688 110.070313 75.71875 C 107.636719 78.054688 105.976563 79.421875 102.566406 80.882813 C 107.050781 80.882813 110.851563 80.785156 114.652344 80.785156 C 124.203125 80.785156 131.023438 84.097656 131.609375 92.1875 C 131.902344 97.546875 128.785156 101.738281 125.273438 105.148438 C 121.960938 108.269531 121.472656 109.535156 115.335938 111.777344 L 136.386719 143.0625 L 122.839844 143.355469 C 117.574219 135.460938 106.660156 118.988281 95.550781 102.519531 L 93.210938 99.203125 L 86.875 137.117188 L 89.507813 142.574219 L 69.527344 142.574219 L 70.015625 140.625 L 71.476563 140.332031 L 75.277344 138.96875 C 76.351563 138.578125 77.226563 133.609375 78.691406 125.226563 L 85.707031 87.121094 C 84.050781 84.585938 82.296875 81.660156 81.222656 80.199219 C 88.433594 80.003906 94.867188 79.613281 100.226563 74.644531 C 103.539063 71.621094 105.394531 68.503906 105.394531 64.703125 C 105.394531 58.855469 103.347656 57.101563 93.503906 56.128906 C 91.261719 55.835938 84.148438 55.835938 81.222656 56.421875 Z M 97.984375 86.046875 L 112.214844 107.195313 C 112.996094 106.613281 113.96875 105.734375 115.433594 104.46875 C 118.746094 101.445313 121.085938 98.816406 121.085938 94.917969 C 121.085938 89.164063 118.355469 86.730469 108.609375 85.65625 C 106.953125 85.464844 101.789063 85.753906 97.984375 86.046875 "/>
<path style=" stroke:none;fill-rule:nonzero;fill:rgb(65.499878%,66.299438%,67.498779%);fill-opacity:1;" d="M 104.261719 16.882813 L 104.089844 16.863281 L 103.582031 16.820313 L 103.082031 16.769531 L 102.570313 16.730469 L 102.0625 16.695313 L 101.558594 16.660156 L 101.042969 16.628906 L 100.53125 16.605469 L 100.023438 16.578125 L 99 16.539063 L 97.96875 16.515625 L 97.457031 16.507813 L 96.9375 16.503906 L 96.425781 16.503906 L 96.425781 20.320313 L 96.921875 20.320313 L 97.90625 20.335938 L 98.882813 20.359375 L 99.375 20.378906 L 99.859375 20.398438 L 100.351563 20.421875 L 100.835938 20.449219 L 101.316406 20.480469 L 101.804688 20.511719 L 102.285156 20.546875 L 102.765625 20.589844 L 103.253906 20.621094 L 103.730469 20.667969 L 103.902344 20.683594 Z M 95.816406 16.503906 L 95.398438 16.507813 L 94.886719 16.515625 L 94.367188 16.527344 L 93.851563 16.539063 L 93.34375 16.558594 L 92.828125 16.578125 L 92.324219 16.605469 L 91.808594 16.628906 L 91.296875 16.660156 L 90.792969 16.695313 L 90.28125 16.730469 L 89.773438 16.769531 L 89.269531 16.820313 L 88.761719 16.863281 L 88.261719 16.914063 L 87.984375 16.941406 L 88.390625 20.746094 L 88.636719 20.71875 L 89.121094 20.667969 L 89.597656 20.621094 L 90.085938 20.589844 L 90.566406 20.546875 L 91.046875 20.511719 L 91.535156 20.480469 L 92.019531 20.449219 L 92.503906 20.421875 L 92.992188 20.398438 L 93.480469 20.378906 L 93.972656 20.359375 L 94.457031 20.347656 L 94.945313 20.335938 L 95.441406 20.328125 L 95.863281 20.324219 Z M 84.085938 17.453125 L 83.757813 17.503906 L 83.261719 17.582031 L 82.769531 17.664063 L 82.273438 17.753906 L 81.785156 17.84375 L 81.292969 17.933594 L 80.804688 18.027344 L 80.316406 18.132813 L 79.824219 18.230469 L 79.339844 18.332031 L 78.851563 18.445313 L 78.371094 18.550781 L 77.882813 18.664063 L 77.40625 18.785156 L 76.921875 18.902344 L 76.445313 19.027344 L 76.394531 19.035156 L 77.367188 22.734375 L 77.390625 22.726563 L 77.851563 22.613281 L 78.304688 22.496094 L 78.769531 22.390625 L 79.222656 22.28125 L 79.691406 22.171875 L 80.148438 22.074219 L 80.617188 21.972656 L 81.078125 21.875 L 81.539063 21.785156 L 82.011719 21.691406 L 82.476563 21.601563 L 82.949219 21.515625 L 83.414063 21.4375 L 83.890625 21.355469 L 84.359375 21.277344 L 84.6875 21.226563 Z M 72.617188 20.117188 L 72.171875 20.257813 L 71.703125 20.402344 L 71.238281 20.5625 L 70.769531 20.714844 L 70.308594 20.878906 L 69.839844 21.035156 L 69.382813 21.203125 L 68.917969 21.367188 L 68.460938 21.539063 L 68 21.710938 L 67.546875 21.886719 L 67.085938 22.0625 L 66.636719 22.246094 L 66.1875 22.433594 L 65.730469 22.613281 L 65.285156 22.808594 L 65.242188 22.816406 L 66.757813 26.335938 L 66.765625 26.324219 L 67.199219 26.148438 L 67.625 25.96875 L 68.058594 25.796875 L 68.496094 25.625 L 68.921875 25.453125 L 69.363281 25.289063 L 69.792969 25.121094 L 70.234375 24.960938 L 70.671875 24.796875 L 71.113281 24.644531 L 71.550781 24.484375 L 71.996094 24.339844 L 72.4375 24.1875 L 72.886719 24.042969 L 73.328125 23.894531 L 73.769531 23.757813 Z M 61.667969 24.445313 L 61.296875 24.628906 L 60.863281 24.835938 L 60.425781 25.058594 L 59.558594 25.496094 L 59.132813 25.722656 L 58.707031 25.953125 L 58.273438 26.1875 L 57.851563 26.414063 L 57.429688 26.648438 L 57.003906 26.890625 L 56.585938 27.132813 L 56.160156 27.367188 L 55.746094 27.613281 L 55.335938 27.863281 L 54.921875 28.117188 L 54.777344 28.203125 L 56.78125 31.453125 L 56.898438 31.378906 L 57.695313 30.910156 L 58.09375 30.679688 L 58.488281 30.441406 L 58.890625 30.214844 L 59.289063 29.988281 L 59.695313 29.765625 L 60.101563 29.539063 L 60.503906 29.324219 L 61.324219 28.894531 L 61.730469 28.679688 L 62.144531 28.472656 L 62.554688 28.265625 L 62.972656 28.054688 L 63.347656 27.875 Z M 51.480469 30.324219 L 51.265625 30.46875 L 50.871094 30.742188 L 50.46875 31.019531 L 49.6875 31.582031 L 49.300781 31.863281 L 48.910156 32.144531 L 48.519531 32.429688 L 47.753906 33.015625 L 47.375 33.308594 L 46.988281 33.605469 L 46.613281 33.902344 L 46.238281 34.203125 L 45.863281 34.507813 L 45.492188 34.8125 L 45.207031 35.046875 L 47.660156 37.980469 L 47.917969 37.761719 L 48.277344 37.472656 L 48.632813 37.183594 L 48.992188 36.898438 L 49.355469 36.613281 L 49.710938 36.332031 L 50.074219 36.054688 L 50.441406 35.777344 L 50.8125 35.5 L 51.171875 35.226563 L 51.546875 34.949219 L 51.917969 34.679688 L 52.292969 34.414063 L 52.671875 34.148438 L 53.042969 33.886719 L 53.421875 33.628906 L 53.636719 33.484375 Z M 42.253906 37.628906 L 42.222656 37.65625 L 41.519531 38.3125 L 41.171875 38.640625 L 40.824219 38.972656 L 40.136719 39.644531 L 39.457031 40.324219 L 39.121094 40.664063 L 38.777344 41.015625 L 38.113281 41.710938 L 37.457031 42.414063 L 37.132813 42.765625 L 36.808594 43.121094 L 36.730469 43.214844 L 39.589844 45.757813 L 39.65625 45.683594 L 40.273438 45.003906 L 40.585938 44.664063 L 40.898438 44.332031 L 41.214844 43.996094 L 41.53125 43.667969 L 41.84375 43.347656 L 42.492188 42.691406 L 42.816406 42.371094 L 43.144531 42.046875 L 43.472656 41.730469 L 43.804688 41.410156 L 44.8125 40.472656 L 44.84375 40.445313 Z M 34.179688 46.203125 L 34 46.421875 L 33.398438 47.171875 L 33.109375 47.550781 L 32.8125 47.9375 L 32.519531 48.316406 L 32.230469 48.699219 L 31.941406 49.085938 L 31.65625 49.472656 L 31.371094 49.867188 L 30.808594 50.648438 L 30.53125 51.042969 L 30.257813 51.445313 L 29.992188 51.839844 L 29.71875 52.238281 L 29.53125 52.519531 L 32.722656 54.628906 L 32.894531 54.367188 L 33.152344 53.980469 L 33.414063 53.601563 L 33.675781 53.230469 L 33.9375 52.851563 L 34.203125 52.472656 L 34.46875 52.097656 L 34.738281 51.734375 L 35.285156 50.992188 L 35.558594 50.625 L 35.839844 50.257813 L 36.117188 49.902344 L 36.410156 49.539063 L 36.691406 49.175781 L 36.980469 48.816406 L 37.160156 48.597656 Z M 27.441406 55.847656 L 27.398438 55.921875 L 27.15625 56.335938 L 26.910156 56.757813 L 26.667969 57.175781 L 26.429688 57.59375 L 26.191406 58.019531 L 25.964844 58.441406 L 25.730469 58.867188 L 25.5 59.300781 L 25.28125 59.726563 L 25.054688 60.152344 L 24.832031 60.589844 L 24.613281 61.019531 L 24.402344 61.460938 L 23.972656 62.328125 L 23.769531 62.773438 L 23.761719 62.789063 L 27.234375 64.390625 L 27.230469 64.390625 L 27.433594 63.976563 L 27.832031 63.140625 L 28.042969 62.730469 L 28.246094 62.3125 L 28.457031 61.90625 L 28.664063 61.492188 L 28.886719 61.082031 L 29.101563 60.679688 L 29.320313 60.269531 L 29.546875 59.863281 L 29.769531 59.464844 L 29.992188 59.0625 L 30.222656 58.660156 L 30.453125 58.265625 L 30.691406 57.867188 L 30.734375 57.792969 Z M 22.183594 66.390625 L 22.015625 66.796875 L 21.832031 67.246094 L 21.65625 67.707031 L 21.476563 68.160156 L 21.308594 68.621094 L 21.136719 69.074219 L 20.972656 69.539063 L 20.800781 69.996094 L 20.644531 70.464844 L 20.480469 70.925781 L 20.328125 71.394531 L 20.171875 71.859375 L 20.023438 72.328125 L 19.871094 72.796875 L 19.730469 73.269531 L 19.582031 73.738281 L 19.570313 73.796875 L 23.238281 74.855469 L 23.25 74.828125 L 23.382813 74.378906 L 23.523438 73.933594 L 23.660156 73.484375 L 23.808594 73.039063 L 23.953125 72.59375 L 24.105469 72.152344 L 24.253906 71.707031 L 24.410156 71.269531 L 24.566406 70.828125 L 24.730469 70.394531 L 24.886719 69.953125 L 25.058594 69.519531 L 25.222656 69.085938 L 25.566406 68.21875 L 25.730469 67.8125 Z M 18.535156 77.585938 L 18.425781 78.035156 L 18.3125 78.523438 L 18.207031 79.003906 L 18.09375 79.492188 L 17.992188 79.972656 L 17.890625 80.464844 L 17.785156 80.949219 L 17.695313 81.441406 L 17.601563 81.9375 L 17.515625 82.425781 L 17.421875 82.921875 L 17.339844 83.410156 L 17.261719 83.90625 L 17.179688 84.40625 L 17.105469 84.898438 L 17.050781 85.289063 L 20.839844 85.8125 L 20.894531 85.453125 L 20.964844 84.976563 L 21.035156 84.507813 L 21.113281 84.039063 L 21.195313 83.5625 L 21.273438 83.097656 L 21.359375 82.625 L 21.453125 82.160156 L 21.546875 81.699219 L 21.636719 81.230469 L 21.734375 80.769531 L 21.835938 80.300781 L 21.933594 79.84375 L 22.042969 79.375 L 22.15625 78.921875 L 22.261719 78.46875 Z M 16.597656 89.191406 L 16.578125 89.417969 L 16.527344 89.917969 L 16.488281 90.429688 L 16.449219 90.9375 L 16.417969 91.445313 L 16.386719 91.957031 L 16.359375 92.460938 L 16.335938 92.976563 L 16.296875 94 L 16.28125 94.515625 L 16.273438 95.03125 L 16.265625 95.542969 L 16.257813 96.0625 L 16.257813 97.023438 L 20.078125 97.007813 L 20.078125 96.078125 L 20.082031 95.589844 L 20.089844 95.09375 L 20.101563 94.605469 L 20.117188 94.117188 L 20.132813 93.625 L 20.179688 92.65625 L 20.207031 92.164063 L 20.234375 91.683594 L 20.269531 91.195313 L 20.304688 90.714844 L 20.34375 90.234375 L 20.378906 89.746094 L 20.402344 89.523438 Z M 16.375 100.949219 L 16.386719 101.191406 L 16.417969 101.703125 L 16.449219 102.207031 L 16.527344 103.230469 L 16.578125 103.730469 L 16.621094 104.238281 L 16.671875 104.746094 L 16.722656 105.246094 L 16.777344 105.75 L 16.835938 106.246094 L 16.96875 107.253906 L 17.035156 107.75 L 17.105469 108.25 L 17.179688 108.742188 L 17.1875 108.769531 L 20.960938 108.167969 L 20.964844 108.171875 L 20.894531 107.695313 L 20.824219 107.222656 L 20.757813 106.746094 L 20.691406 106.273438 L 20.640625 105.796875 L 20.582031 105.316406 L 20.527344 104.839844 L 20.472656 104.355469 L 20.378906 103.402344 L 20.34375 102.914063 L 20.304688 102.433594 L 20.269531 101.953125 L 20.234375 101.464844 L 20.207031 100.980469 L 20.191406 100.742188 Z M 17.878906 112.621094 L 17.890625 112.683594 L 17.992188 113.175781 L 18.09375 113.660156 L 18.207031 114.148438 L 18.3125 114.628906 L 18.425781 115.117188 L 18.546875 115.59375 L 18.664063 116.078125 L 18.789063 116.5625 L 18.914063 117.039063 L 19.039063 117.519531 L 19.171875 117.992188 L 19.304688 118.472656 L 19.445313 118.941406 L 19.582031 119.417969 L 19.730469 119.886719 L 19.832031 120.234375 L 23.484375 119.09375 L 23.382813 118.777344 L 23.25 118.324219 L 23.113281 117.878906 L 22.988281 117.421875 L 22.855469 116.972656 L 22.738281 116.515625 L 22.613281 116.066406 L 22.488281 115.605469 L 22.378906 115.152344 L 22.261719 114.695313 L 22.15625 114.234375 L 22.042969 113.777344 L 21.933594 113.308594 L 21.835938 112.851563 L 21.734375 112.382813 L 21.636719 111.921875 L 21.621094 111.859375 Z M 21.089844 123.953125 L 21.136719 124.082031 L 21.308594 124.539063 L 21.476563 125 L 21.65625 125.453125 L 21.832031 125.914063 L 22.015625 126.363281 L 22.203125 126.820313 L 22.386719 127.269531 L 22.578125 127.714844 L 22.765625 128.167969 L 22.964844 128.613281 L 23.164063 129.0625 L 23.359375 129.503906 L 23.5625 129.953125 L 23.769531 130.390625 L 23.972656 130.828125 L 24.148438 131.1875 L 27.589844 129.523438 L 27.433594 129.195313 L 27.230469 128.773438 L 27.039063 128.347656 L 26.847656 127.929688 L 26.652344 127.503906 L 26.46875 127.085938 L 26.285156 126.65625 L 26.097656 126.234375 L 25.738281 125.367188 L 25.566406 124.941406 L 25.394531 124.507813 L 25.222656 124.078125 L 25.058594 123.636719 L 24.886719 123.207031 L 24.730469 122.765625 L 24.683594 122.636719 Z M 25.941406 134.679688 L 25.964844 134.726563 L 26.191406 135.148438 L 26.429688 135.578125 L 26.667969 135.996094 L 26.910156 136.414063 L 27.15625 136.839844 L 27.398438 137.253906 L 27.648438 137.667969 L 27.898438 138.085938 L 28.152344 138.496094 L 28.402344 138.90625 L 28.660156 139.320313 L 28.921875 139.722656 L 29.1875 140.128906 L 29.453125 140.53125 L 29.71875 140.9375 L 29.992188 141.335938 L 30.023438 141.390625 L 33.183594 139.234375 L 33.152344 139.195313 L 32.894531 138.8125 L 32.640625 138.433594 L 32.390625 138.046875 L 32.140625 137.65625 L 31.894531 137.265625 L 31.652344 136.882813 L 31.402344 136.488281 L 31.164063 136.09375 L 30.925781 135.703125 L 30.691406 135.304688 L 30.453125 134.90625 L 30.222656 134.511719 L 29.992188 134.109375 L 29.546875 133.304688 L 29.320313 132.898438 L 29.292969 132.851563 Z M 32.300781 144.585938 L 32.511719 144.863281 L 32.804688 145.246094 L 33.101563 145.632813 L 33.398438 146.011719 L 33.699219 146.390625 L 34 146.761719 L 34.304688 147.136719 L 34.609375 147.515625 L 35.226563 148.25 L 35.539063 148.617188 L 36.171875 149.34375 L 36.488281 149.703125 L 36.808594 150.066406 L 37.132813 150.421875 L 37.316406 150.625 L 40.132813 148.035156 L 39.964844 147.847656 L 39.65625 147.507813 L 39.351563 147.171875 L 39.046875 146.828125 L 38.746094 146.480469 L 38.445313 146.128906 L 38.148438 145.78125 L 37.851563 145.425781 L 37.558594 145.074219 L 37.269531 144.726563 L 36.691406 144.007813 L 36.410156 143.644531 L 36.125 143.28125 L 35.84375 142.925781 L 35.566406 142.558594 L 35.355469 142.28125 Z M 40.039063 153.457031 L 40.136719 153.550781 L 40.824219 154.222656 L 41.519531 154.886719 L 42.222656 155.542969 L 42.933594 156.191406 L 43.296875 156.511719 L 43.65625 156.828125 L 44.382813 157.460938 L 44.75 157.773438 L 45.484375 158.390625 L 45.863281 158.695313 L 45.878906 158.710938 L 48.273438 155.730469 L 48.277344 155.730469 L 47.925781 155.441406 L 47.574219 155.148438 L 47.21875 154.851563 L 46.871094 154.554688 L 46.519531 154.253906 L 46.175781 153.953125 L 45.828125 153.652344 L 45.492188 153.34375 L 44.8125 152.726563 L 44.140625 152.101563 L 43.804688 151.785156 L 43.472656 151.46875 L 43.144531 151.148438 L 42.816406 150.824219 L 42.71875 150.730469 Z M 48.972656 161.113281 L 49.292969 161.34375 L 49.6875 161.628906 L 50.46875 162.191406 L 50.871094 162.46875 L 51.265625 162.742188 L 51.664063 163.007813 L 52.0625 163.28125 L 52.46875 163.546875 L 52.871094 163.8125 L 53.277344 164.078125 L 53.679688 164.339844 L 54.097656 164.597656 L 54.503906 164.847656 L 54.914063 165.101563 L 55.335938 165.351563 L 55.511719 165.464844 L 57.460938 162.167969 L 57.296875 162.074219 L 56.90625 161.835938 L 56.511719 161.597656 L 56.117188 161.347656 L 55.734375 161.105469 L 55.34375 160.859375 L 54.953125 160.609375 L 54.566406 160.359375 L 54.1875 160.105469 L 53.804688 159.847656 L 53.421875 159.585938 L 53.042969 159.324219 L 52.671875 159.0625 L 52.292969 158.796875 L 51.917969 158.53125 L 51.554688 158.261719 L 51.234375 158.027344 Z M 58.933594 167.394531 L 59.132813 167.5 L 59.558594 167.71875 L 59.992188 167.945313 L 60.425781 168.167969 L 60.855469 168.386719 L 61.296875 168.597656 L 61.730469 168.8125 L 62.171875 169.027344 L 62.609375 169.230469 L 63.046875 169.4375 L 63.496094 169.640625 L 63.9375 169.835938 L 64.386719 170.039063 L 64.832031 170.234375 L 65.285156 170.421875 L 65.730469 170.613281 L 66.03125 170.734375 L 67.484375 167.203125 L 67.199219 167.082031 L 66.765625 166.902344 L 66.34375 166.714844 L 65.914063 166.53125 L 65.496094 166.347656 L 65.070313 166.152344 L 64.652344 165.964844 L 64.226563 165.769531 L 63.804688 165.566406 L 63.390625 165.367188 L 62.972656 165.167969 L 62.5625 164.957031 L 62.144531 164.753906 L 61.730469 164.542969 L 61.324219 164.335938 L 60.914063 164.113281 L 60.714844 164.007813 Z M 69.699219 172.148438 L 69.839844 172.199219 L 70.308594 172.355469 L 70.769531 172.519531 L 71.238281 172.671875 L 71.703125 172.828125 L 72.171875 172.976563 L 72.640625 173.128906 L 73.113281 173.269531 L 73.582031 173.417969 L 74.058594 173.554688 L 74.53125 173.695313 L 75.007813 173.828125 L 75.480469 173.960938 L 75.964844 174.085938 L 76.4375 174.210938 L 76.921875 174.335938 L 77.222656 174.410156 L 78.121094 170.695313 L 77.851563 170.625 L 77.398438 170.511719 L 76.933594 170.386719 L 76.484375 170.261719 L 76.027344 170.144531 L 75.578125 170.011719 L 75.121094 169.886719 L 74.675781 169.75 L 74.222656 169.617188 L 73.777344 169.476563 L 73.328125 169.339844 L 72.886719 169.191406 L 72.4375 169.046875 L 71.996094 168.894531 L 71.550781 168.746094 L 71.113281 168.589844 L 70.972656 168.539063 Z M 81.054688 175.261719 L 81.292969 175.308594 L 81.785156 175.398438 L 82.273438 175.484375 L 82.769531 175.578125 L 83.261719 175.660156 L 83.757813 175.738281 L 84.257813 175.824219 L 84.75 175.894531 L 85.25 175.964844 L 85.746094 176.03125 L 86.753906 176.164063 L 87.25 176.222656 L 87.753906 176.277344 L 88.253906 176.328125 L 88.761719 176.378906 L 88.835938 176.382813 L 89.164063 172.582031 L 89.121094 172.574219 L 88.644531 172.527344 L 88.160156 172.472656 L 87.683594 172.417969 L 87.203125 172.359375 L 86.726563 172.308594 L 86.253906 172.242188 L 85.777344 172.175781 L 85.304688 172.105469 L 84.828125 172.035156 L 84.359375 171.964844 L 83.890625 171.886719 L 83.414063 171.804688 L 82.949219 171.726563 L 82.476563 171.640625 L 82.011719 171.546875 L 81.773438 171.503906 Z M 92.742188 176.660156 L 92.828125 176.664063 L 93.34375 176.683594 L 93.851563 176.703125 L 94.367188 176.71875 L 94.886719 176.726563 L 95.398438 176.734375 L 95.914063 176.742188 L 96.9375 176.742188 L 97.457031 176.734375 L 97.96875 176.726563 L 98.484375 176.71875 L 99 176.703125 L 100.023438 176.664063 L 100.539063 176.640625 L 100.59375 176.636719 L 100.382813 172.820313 L 100.34375 172.820313 L 99.375 172.867188 L 98.882813 172.882813 L 98.394531 172.898438 L 97.90625 172.910156 L 97.414063 172.917969 L 96.921875 172.921875 L 95.929688 172.921875 L 95.441406 172.917969 L 94.945313 172.910156 L 94.457031 172.898438 L 93.972656 172.882813 L 93.480469 172.867188 L 92.992188 172.84375 L 92.90625 172.84375 Z M 104.503906 176.339844 L 104.597656 176.328125 L 105.097656 176.277344 L 105.601563 176.222656 L 106.101563 176.164063 L 106.605469 176.097656 L 107.105469 176.03125 L 107.601563 175.964844 L 108.101563 175.894531 L 108.59375 175.824219 L 109.09375 175.738281 L 109.589844 175.660156 L 110.078125 175.578125 L 110.578125 175.484375 L 111.0625 175.398438 L 111.558594 175.308594 L 112.050781 175.214844 L 112.269531 175.164063 L 111.503906 171.417969 L 111.300781 171.453125 L 110.839844 171.546875 L 110.375 171.640625 L 109.902344 171.726563 L 109.4375 171.804688 L 108.960938 171.886719 L 108.492188 171.964844 L 108.023438 172.035156 L 107.546875 172.105469 L 107.078125 172.175781 L 106.597656 172.242188 L 106.125 172.308594 L 105.652344 172.359375 L 105.167969 172.417969 L 104.691406 172.472656 L 104.210938 172.527344 L 104.113281 172.535156 Z M 116.105469 174.289063 L 116.410156 174.210938 L 116.882813 174.085938 L 117.363281 173.960938 L 118.316406 173.695313 L 118.785156 173.554688 L 119.261719 173.417969 L 119.730469 173.269531 L 120.203125 173.128906 L 120.671875 172.976563 L 121.144531 172.828125 L 121.605469 172.671875 L 122.074219 172.519531 L 122.535156 172.355469 L 123.003906 172.199219 L 123.460938 172.027344 L 123.609375 171.980469 L 122.289063 168.386719 L 122.171875 168.433594 L 121.730469 168.589844 L 121.292969 168.746094 L 120.847656 168.894531 L 120.40625 169.046875 L 119.960938 169.191406 L 119.519531 169.339844 L 119.066406 169.476563 L 118.621094 169.617188 L 118.171875 169.75 L 117.722656 169.886719 L 117.269531 170.011719 L 116.820313 170.144531 L 116.363281 170.261719 L 115.910156 170.386719 L 115.453125 170.511719 L 115.144531 170.589844 Z M 127.265625 170.546875 L 127.5625 170.421875 L 128.007813 170.226563 L 128.449219 170.039063 L 128.898438 169.835938 L 129.339844 169.640625 L 129.789063 169.4375 L 130.226563 169.230469 L 130.671875 169.027344 L 131.539063 168.597656 L 131.980469 168.386719 L 132.410156 168.167969 L 132.847656 167.945313 L 133.273438 167.71875 L 133.699219 167.5 L 134.132813 167.269531 L 134.34375 167.152344 L 132.515625 163.796875 L 132.320313 163.898438 L 131.917969 164.113281 L 131.507813 164.335938 L 131.09375 164.542969 L 130.6875 164.753906 L 130.269531 164.957031 L 129.863281 165.167969 L 129.441406 165.367188 L 129.023438 165.566406 L 128.609375 165.769531 L 128.183594 165.964844 L 127.769531 166.152344 L 127.34375 166.347656 L 126.921875 166.53125 L 126.496094 166.722656 L 126.0625 166.902344 L 125.769531 167.027344 Z M 137.75 165.199219 L 137.914063 165.101563 L 138.320313 164.847656 L 138.730469 164.589844 L 139.144531 164.339844 L 139.550781 164.078125 L 139.953125 163.8125 L 140.359375 163.546875 L 140.761719 163.28125 L 141.160156 163.007813 L 141.554688 162.742188 L 141.957031 162.46875 L 142.351563 162.191406 L 143.132813 161.628906 L 143.527344 161.34375 L 143.914063 161.058594 L 144.253906 160.804688 L 141.960938 157.75 L 141.636719 157.988281 L 141.265625 158.261719 L 140.902344 158.53125 L 140.527344 158.796875 L 140.148438 159.0625 L 139.398438 159.585938 L 139.019531 159.847656 L 138.636719 160.105469 L 138.25 160.359375 L 137.871094 160.609375 L 137.480469 160.859375 L 137.09375 161.105469 L 136.710938 161.355469 L 136.316406 161.597656 L 135.921875 161.835938 L 135.757813 161.933594 Z M 147.347656 158.375 L 147.695313 158.082031 L 148.0625 157.773438 L 148.429688 157.460938 L 148.792969 157.144531 L 149.152344 156.828125 L 149.519531 156.511719 L 149.878906 156.191406 L 150.234375 155.867188 L 150.585938 155.542969 L 151.289063 154.886719 L 151.984375 154.222656 L 152.335938 153.878906 L 152.675781 153.542969 L 153.019531 153.207031 L 153.140625 153.082031 L 150.414063 150.398438 L 150.308594 150.511719 L 149.980469 150.832031 L 149.65625 151.15625 L 149.332031 151.46875 L 149.003906 151.785156 L 148.667969 152.101563 L 148.335938 152.414063 L 147.996094 152.726563 L 146.976563 153.652344 L 146.636719 153.953125 L 145.941406 154.554688 L 145.59375 154.851563 L 145.242188 155.148438 L 144.890625 155.441406 Z M 155.835938 150.230469 L 155.988281 150.058594 L 156.308594 149.703125 L 156.628906 149.34375 L 156.945313 148.980469 L 157.257813 148.617188 L 157.570313 148.25 L 157.878906 147.882813 L 158.1875 147.507813 L 158.492188 147.136719 L 158.796875 146.761719 L 159.097656 146.390625 L 159.394531 146.011719 L 159.691406 145.625 L 159.988281 145.246094 L 160.277344 144.863281 L 160.570313 144.480469 L 160.808594 144.15625 L 157.722656 141.894531 L 157.5 142.191406 L 157.226563 142.558594 L 156.945313 142.925781 L 156.667969 143.289063 L 156.386719 143.644531 L 156.101563 144.007813 L 155.816406 144.367188 L 155.527344 144.726563 L 155.238281 145.082031 L 154.945313 145.425781 L 154.648438 145.78125 L 154.351563 146.128906 L 154.054688 146.480469 L 153.753906 146.828125 L 153.144531 147.515625 L 152.992188 147.683594 Z M 163.058594 140.953125 L 163.066406 140.9375 L 163.335938 140.53125 L 163.601563 140.128906 L 163.863281 139.722656 L 164.125 139.3125 L 164.382813 138.90625 L 164.628906 138.496094 L 164.882813 138.078125 L 165.136719 137.667969 L 165.386719 137.253906 L 165.632813 136.839844 L 165.867188 136.414063 L 166.109375 135.996094 L 166.351563 135.570313 L 166.589844 135.148438 L 166.816406 134.726563 L 167.046875 134.292969 L 167.097656 134.203125 L 163.714844 132.421875 L 163.679688 132.496094 L 163.460938 132.898438 L 163.234375 133.304688 L 163.011719 133.710938 L 162.785156 134.109375 L 162.558594 134.511719 L 162.320313 134.90625 L 162.089844 135.304688 L 161.621094 136.101563 L 161.382813 136.488281 L 161.132813 136.882813 L 160.890625 137.273438 L 160.644531 137.65625 L 160.394531 138.046875 L 160.144531 138.433594 L 159.890625 138.8125 L 159.882813 138.824219 Z M 168.859375 130.695313 L 169.003906 130.390625 L 169.210938 129.945313 L 169.414063 129.503906 L 169.609375 129.0625 L 169.808594 128.613281 L 170.007813 128.167969 L 170.195313 127.714844 L 170.386719 127.269531 L 170.566406 126.8125 L 170.753906 126.363281 L 170.9375 125.914063 L 171.113281 125.453125 L 171.289063 125 L 171.460938 124.539063 L 171.632813 124.082031 L 171.796875 123.617188 L 171.863281 123.441406 L 168.253906 122.167969 L 168.203125 122.332031 L 168.039063 122.765625 L 167.882813 123.207031 L 167.710938 123.636719 L 167.546875 124.078125 L 167.375 124.507813 L 167.203125 124.941406 L 167.035156 125.375 L 166.851563 125.800781 L 166.675781 126.234375 L 166.488281 126.65625 L 166.304688 127.085938 L 166.121094 127.503906 L 165.925781 127.929688 L 165.734375 128.355469 L 165.542969 128.773438 L 165.398438 129.078125 Z M 173.09375 119.710938 L 173.183594 119.417969 L 173.320313 118.941406 L 173.460938 118.472656 L 173.589844 117.992188 L 173.726563 117.519531 L 173.851563 117.039063 L 173.972656 116.554688 L 174.097656 116.078125 L 174.214844 115.59375 L 174.335938 115.117188 L 174.449219 114.628906 L 174.554688 114.148438 L 174.667969 113.660156 L 174.769531 113.175781 L 174.871094 112.683594 L 174.972656 112.195313 L 174.992188 112.089844 L 171.234375 111.371094 L 171.214844 111.460938 L 171.125 111.921875 L 171.027344 112.382813 L 170.925781 112.851563 L 170.828125 113.308594 L 170.71875 113.777344 L 170.609375 114.234375 L 170.503906 114.695313 L 170.386719 115.152344 L 170.273438 115.613281 L 170.152344 116.066406 L 170.027344 116.515625 L 169.90625 116.972656 L 169.777344 117.421875 L 169.648438 117.878906 L 169.515625 118.324219 L 169.425781 118.621094 Z M 175.65625 108.214844 L 175.722656 107.75 L 175.789063 107.246094 L 175.855469 106.75 L 175.921875 106.246094 L 175.980469 105.75 L 176.035156 105.246094 L 176.085938 104.738281 L 176.136719 104.238281 L 176.179688 103.730469 L 176.230469 103.230469 L 176.308594 102.207031 L 176.339844 101.703125 L 176.371094 101.191406 L 176.398438 100.675781 L 176.410156 100.40625 L 172.589844 100.242188 L 172.578125 100.496094 L 172.550781 100.980469 L 172.519531 101.464844 L 172.488281 101.953125 L 172.453125 102.433594 L 172.414063 102.914063 L 172.378906 103.402344 L 172.332031 103.878906 L 172.285156 104.363281 L 172.175781 105.316406 L 172.117188 105.796875 L 172.066406 106.273438 L 172.003906 106.753906 L 171.933594 107.222656 L 171.867188 107.691406 Z M 176.496094 96.484375 L 176.496094 96.0625 L 176.492188 95.542969 L 176.484375 95.03125 L 176.460938 94 L 176.421875 92.976563 L 176.398438 92.46875 L 176.371094 91.957031 L 176.339844 91.445313 L 176.308594 90.9375 L 176.269531 90.429688 L 176.230469 89.917969 L 176.179688 89.417969 L 176.136719 88.910156 L 176.109375 88.648438 L 172.308594 89.023438 L 172.332031 89.269531 L 172.378906 89.746094 L 172.414063 90.234375 L 172.453125 90.714844 L 172.488281 91.195313 L 172.519531 91.683594 L 172.550781 92.164063 L 172.578125 92.648438 L 172.601563 93.140625 L 172.621094 93.625 L 172.640625 94.117188 L 172.664063 95.09375 L 172.675781 95.589844 L 172.679688 96.078125 L 172.679688 96.5 Z M 175.632813 84.746094 L 175.582031 84.40625 L 175.496094 83.90625 L 175.417969 83.410156 L 175.335938 82.921875 L 175.246094 82.425781 L 175.15625 81.9375 L 175.066406 81.441406 L 174.972656 80.957031 L 174.769531 79.972656 L 174.667969 79.492188 L 174.554688 79.003906 L 174.449219 78.523438 L 174.335938 78.035156 L 174.214844 77.558594 L 174.097656 77.074219 L 174.085938 77.046875 L 170.386719 77.988281 L 170.386719 78.003906 L 170.503906 78.457031 L 170.609375 78.921875 L 170.71875 79.375 L 170.828125 79.84375 L 170.925781 80.300781 L 171.027344 80.769531 L 171.125 81.230469 L 171.214844 81.691406 L 171.308594 82.160156 L 171.398438 82.625 L 171.484375 83.097656 L 171.5625 83.5625 L 171.644531 84.039063 L 171.726563 84.507813 L 171.792969 84.976563 L 171.84375 85.316406 Z M 173.035156 73.269531 L 172.894531 72.796875 L 172.742188 72.328125 L 172.597656 71.859375 L 172.4375 71.394531 L 172.285156 70.925781 L 172.121094 70.464844 L 171.964844 69.996094 L 171.796875 69.539063 L 171.632813 69.074219 L 171.460938 68.621094 L 171.289063 68.160156 L 171.113281 67.707031 L 170.9375 67.246094 L 170.753906 66.796875 L 170.566406 66.339844 L 170.386719 65.894531 L 170.371094 65.871094 L 166.855469 67.355469 L 166.851563 67.359375 L 167.035156 67.792969 L 167.203125 68.21875 L 167.546875 69.085938 L 167.710938 69.519531 L 167.882813 69.953125 L 168.039063 70.394531 L 168.203125 70.828125 L 168.355469 71.269531 L 168.515625 71.707031 L 168.660156 72.152344 L 168.8125 72.59375 L 168.957031 73.039063 L 169.105469 73.484375 L 169.242188 73.933594 L 169.382813 74.378906 Z M 168.773438 62.28125 L 168.589844 61.894531 L 168.375 61.460938 L 168.164063 61.019531 L 167.945313 60.589844 L 167.722656 60.160156 L 167.503906 59.726563 L 167.277344 59.300781 L 167.046875 58.867188 L 166.816406 58.441406 L 166.589844 58.019531 L 166.351563 57.59375 L 165.867188 56.757813 L 165.632813 56.335938 L 165.386719 55.921875 L 165.136719 55.507813 L 165.054688 55.367188 L 161.789063 57.359375 L 161.855469 57.46875 L 162.089844 57.867188 L 162.320313 58.265625 L 162.558594 58.660156 L 163.011719 59.464844 L 163.234375 59.863281 L 163.460938 60.269531 L 163.679688 60.679688 L 163.894531 61.082031 L 164.105469 61.492188 L 164.320313 61.898438 L 164.53125 62.3125 L 164.734375 62.730469 L 164.945313 63.140625 L 165.144531 63.558594 L 165.328125 63.945313 Z M 162.949219 52.058594 L 162.804688 51.839844 L 162.257813 51.050781 L 161.980469 50.648438 L 161.699219 50.257813 L 161.421875 49.867188 L 161.136719 49.480469 L 160.851563 49.085938 L 160.5625 48.699219 L 160.273438 48.316406 L 159.988281 47.9375 L 159.691406 47.550781 L 159.394531 47.171875 L 159.097656 46.796875 L 158.796875 46.421875 L 158.492188 46.050781 L 158.261719 45.769531 L 155.3125 48.195313 L 155.527344 48.460938 L 155.816406 48.816406 L 156.101563 49.175781 L 156.386719 49.539063 L 156.667969 49.902344 L 156.945313 50.257813 L 157.230469 50.625 L 157.507813 50.992188 L 157.78125 51.363281 L 158.050781 51.726563 L 158.320313 52.097656 L 158.585938 52.472656 L 158.851563 52.851563 L 159.113281 53.222656 L 159.628906 53.980469 L 159.777344 54.199219 Z M 155.691406 42.796875 L 155.667969 42.765625 L 155.34375 42.414063 L 154.6875 41.710938 L 154.359375 41.363281 L 154.027344 41.015625 L 153.691406 40.671875 L 153.355469 40.332031 L 153.019531 39.984375 L 152.671875 39.644531 L 151.984375 38.972656 L 151.636719 38.640625 L 151.289063 38.3125 L 150.585938 37.65625 L 150.234375 37.332031 L 150.136719 37.242188 L 147.574219 40.089844 L 147.65625 40.164063 L 147.996094 40.472656 L 148.335938 40.785156 L 148.667969 41.097656 L 149.003906 41.410156 L 149.332031 41.730469 L 149.660156 42.046875 L 149.988281 42.371094 L 150.628906 43.011719 L 150.953125 43.339844 L 151.269531 43.667969 L 151.589844 43.996094 L 151.902344 44.332031 L 152.21875 44.664063 L 152.835938 45.34375 L 152.863281 45.371094 Z M 147.160156 34.679688 L 146.949219 34.507813 L 146.578125 34.203125 L 146.203125 33.902344 L 145.828125 33.605469 L 145.449219 33.308594 L 145.0625 33.015625 L 144.683594 32.730469 L 144.300781 32.4375 L 143.914063 32.148438 L 143.519531 31.863281 L 143.132813 31.582031 L 142.351563 31.019531 L 141.949219 30.742188 L 141.160156 30.195313 L 140.867188 30.003906 L 138.738281 33.179688 L 139.019531 33.371094 L 139.398438 33.628906 L 139.78125 33.886719 L 140.148438 34.148438 L 140.527344 34.414063 L 140.902344 34.679688 L 141.273438 34.949219 L 141.636719 35.21875 L 142.007813 35.492188 L 142.375 35.769531 L 142.742188 36.054688 L 143.097656 36.332031 L 143.460938 36.613281 L 143.824219 36.898438 L 144.183594 37.183594 L 144.539063 37.472656 L 144.746094 37.644531 Z M 137.546875 27.898438 L 137.492188 27.863281 L 137.082031 27.613281 L 136.667969 27.367188 L 136.242188 27.132813 L 135.40625 26.648438 L 134.980469 26.414063 L 134.558594 26.1875 L 134.132813 25.953125 L 133.699219 25.722656 L 133.273438 25.496094 L 132.839844 25.277344 L 132.410156 25.058594 L 131.980469 24.835938 L 131.539063 24.628906 L 131.105469 24.410156 L 130.664063 24.199219 L 130.621094 24.183594 L 129.003906 27.644531 L 129.03125 27.660156 L 129.441406 27.855469 L 129.863281 28.054688 L 130.269531 28.265625 L 130.6875 28.472656 L 131.101563 28.679688 L 131.507813 28.894531 L 131.917969 29.109375 L 132.320313 29.324219 L 132.730469 29.539063 L 133.136719 29.765625 L 133.535156 29.988281 L 133.9375 30.214844 L 134.34375 30.441406 L 134.734375 30.679688 L 135.132813 30.910156 L 135.53125 31.144531 L 135.585938 31.175781 Z M 127.039063 22.589844 L 126.660156 22.433594 L 126.203125 22.246094 L 125.753906 22.0625 L 125.296875 21.886719 L 124.84375 21.710938 L 124.378906 21.539063 L 123.925781 21.367188 L 123.460938 21.203125 L 123.003906 21.035156 L 122.535156 20.878906 L 122.074219 20.714844 L 121.605469 20.5625 L 121.144531 20.402344 L 120.671875 20.257813 L 120.203125 20.105469 L 119.730469 19.964844 L 119.644531 19.933594 L 118.550781 23.601563 L 118.621094 23.617188 L 119.066406 23.761719 L 119.519531 23.894531 L 119.960938 24.042969 L 120.40625 24.1875 L 120.847656 24.339844 L 121.292969 24.484375 L 121.730469 24.644531 L 122.171875 24.796875 L 122.605469 24.960938 L 123.046875 25.121094 L 123.480469 25.289063 L 123.917969 25.453125 L 124.347656 25.625 L 124.78125 25.796875 L 125.207031 25.96875 L 125.585938 26.121094 Z M 115.851563 18.886719 L 115.441406 18.785156 L 114.964844 18.664063 L 114.476563 18.550781 L 113.996094 18.445313 L 113.507813 18.332031 L 113.027344 18.230469 L 112.535156 18.132813 L 112.042969 18.027344 L 111.558594 17.933594 L 111.0625 17.84375 L 110.578125 17.753906 L 110.078125 17.664063 L 109.589844 17.582031 L 109.09375 17.503906 L 108.59375 17.421875 L 108.164063 17.355469 L 107.609375 21.144531 L 108.023438 21.207031 L 108.492188 21.277344 L 108.960938 21.355469 L 109.4375 21.4375 L 109.902344 21.515625 L 110.375 21.601563 L 110.839844 21.691406 L 111.308594 21.785156 L 111.769531 21.875 L 112.234375 21.972656 L 112.699219 22.074219 L 113.160156 22.171875 L 113.625 22.28125 L 114.078125 22.390625 L 114.542969 22.496094 L 114.953125 22.601563 L 115.851563 18.886719 "/>
</g>
</svg>
